<svg xmlns="http://www.w3.org/2000/svg" width="16" height="14" viewBox="0 0 16 14">
    <g fill="none" fill-rule="evenodd">
        <g fill="#EE5E51" fill-rule="nonzero">
            <g>
                <g>
                    <g>
                        <path d="M186.938 17.24c.22 0 .416-.079.585-.235l5.782-5.566c.182-.17.273-.375.273-.615 0-.241-.091-.446-.273-.616l-5.743-5.547c-.182-.156-.39-.234-.625-.234-.234 0-.432.088-.595.264-.163.176-.244.38-.244.615 0 .234.09.436.273.605l4.219 4.063h-11.211c-.247 0-.46.091-.635.273-.176.183-.257.398-.244.645.013.221.104.41.273.566.17.157.365.235.586.235h11.192l-4.219 4.062c-.17.17-.257.371-.264.606-.006.234.075.436.244.605.17.182.378.274.625.274z" transform="translate(-631 -985) translate(131 691) translate(302) translate(20 290)"/>
                    </g>
                </g>
            </g>
        </g>
    </g>
</svg>
