<svg xmlns="http://www.w3.org/2000/svg" width="153" height="70">
  <g fill="none" fill-rule="evenodd">
    <g transform="translate(83)">
      <circle cx="1.5" cy="1.5" r="1.5" fill="#9EABB3"/>
      <circle cx="18.5" cy="1.5" r="1.5" fill="#9EABB3"/>
      <circle cx="34.5" cy="1.5" r="1.5" fill="#9EABB3"/>
      <circle cx="51.5" cy="1.5" r="1.5" fill="#9EABB3"/>
      <circle cx="68.5" cy="1.5" r="1.5" fill="#005A9E" opacity=".68"/>
      <circle cx="1.5" cy="18.5" r="1.5" fill="#9EABB3"/>
      <circle cx="18.5" cy="18.5" r="1.5" fill="#9EABB3"/>
      <circle cx="34.5" cy="18.5" r="1.5" fill="#005A9E" opacity=".68"/>
      <circle cx="51.5" cy="18.5" r="1.5" fill="#9EABB3"/>
      <circle cx="68.5" cy="18.5" r="1.5" fill="#9EABB3"/>
      <circle cx="1.5" cy="34.5" r="1.5" fill="#005A9E" opacity=".68"/>
      <circle cx="18.5" cy="34.5" r="1.5" fill="#9EABB3"/>
      <circle cx="34.5" cy="34.5" r="1.5" fill="#9EABB3"/>
      <circle cx="51.5" cy="34.5" r="1.5" fill="#9EABB3"/>
      <circle cx="68.5" cy="34.5" r="1.5" fill="#9EABB3"/>
      <circle cx="1.5" cy="51.5" r="1.5" fill="#9EABB3"/>
      <circle cx="18.5" cy="51.5" r="1.5" fill="#9EABB3"/>
      <circle cx="34.5" cy="51.5" r="1.5" fill="#9EABB3"/>
      <circle cx="51.5" cy="51.5" r="1.5" fill="#9EABB3"/>
      <circle cx="68.5" cy="51.5" r="1.5" fill="#9EABB3"/>
      <circle cx="1.5" cy="68.5" r="1.5" fill="#9EABB3"/>
      <circle cx="18.5" cy="68.5" r="1.5" fill="#005A9E" opacity=".68"/>
      <circle cx="34.5" cy="68.5" r="1.5" fill="#9EABB3"/>
      <circle cx="51.5" cy="68.5" r="1.5" fill="#9EABB3"/>
      <circle cx="68.5" cy="68.5" r="1.5" fill="#9EABB3"/>
    </g>
    <g>
      <circle cx="1.5" cy="1.5" r="1.5" fill="#9EABB3"/>
      <circle cx="18.5" cy="1.5" r="1.5" fill="#9EABB3"/>
      <circle cx="34.5" cy="1.5" r="1.5" fill="#9EABB3"/>
      <circle cx="51.5" cy="1.5" r="1.5" fill="#9EABB3"/>
      <circle cx="68.5" cy="1.5" r="1.5" fill="#005A9E" opacity=".68"/>
      <circle cx="1.5" cy="18.5" r="1.5" fill="#9EABB3"/>
      <circle cx="18.5" cy="18.5" r="1.5" fill="#9EABB3"/>
      <circle cx="34.5" cy="18.5" r="1.5" fill="#005A9E" opacity=".68"/>
      <circle cx="51.5" cy="18.5" r="1.5" fill="#9EABB3"/>
      <circle cx="68.5" cy="18.5" r="1.5" fill="#9EABB3"/>
      <circle cx="1.5" cy="34.5" r="1.5" fill="#005A9E" opacity=".68"/>
      <circle cx="18.5" cy="34.5" r="1.5" fill="#9EABB3"/>
      <circle cx="34.5" cy="34.5" r="1.5" fill="#9EABB3"/>
      <circle cx="51.5" cy="34.5" r="1.5" fill="#9EABB3"/>
      <circle cx="68.5" cy="34.5" r="1.5" fill="#9EABB3"/>
      <circle cx="1.5" cy="51.5" r="1.5" fill="#9EABB3"/>
      <circle cx="18.5" cy="51.5" r="1.5" fill="#9EABB3"/>
      <circle cx="34.5" cy="51.5" r="1.5" fill="#9EABB3"/>
      <circle cx="51.5" cy="51.5" r="1.5" fill="#9EABB3"/>
      <circle cx="68.5" cy="51.5" r="1.5" fill="#9EABB3"/>
      <circle cx="1.5" cy="68.5" r="1.5" fill="#9EABB3"/>
      <circle cx="18.5" cy="68.5" r="1.5" fill="#005A9E" opacity=".68"/>
      <circle cx="34.5" cy="68.5" r="1.5" fill="#9EABB3"/>
      <circle cx="51.5" cy="68.5" r="1.5" fill="#9EABB3"/>
      <circle cx="68.5" cy="68.5" r="1.5" fill="#9EABB3"/>
    </g>
  </g>
</svg>
