<?xml version="1.0" encoding="UTF-8"?>
<svg width="355px" height="28px" viewBox="0 0 355 28" version="1.1" xmlns="http://www.w3.org/2000/svg" xmlns:xlink="http://www.w3.org/1999/xlink">
    <title>Logo_line</title>
    <defs>
        <path d="M11.9119455,2.15033805 L11.3666175,2.1508641 C9.546705,2.1508641 8.066961,3.6327375 8.066961,5.454225 C8.066961,7.2754605 9.5462325,8.7572205 11.3647905,8.757567 L11.9119455,8.7570315 L11.9119455,2.15033805 Z M5.991426,6.326019 L0,6.321609 L0,6.1801425 L2.9769957,4.1756085 L6.072507,4.177908 C6.647697,1.7855712 8.8026435,0.00267489495 11.365578,0.00267489495 L14.057064,0 L14.057064,2.18708595 L17.980641,2.18708595 L17.980641,3.8613645 L17.980641,4.3407945 L14.057064,4.3407945 L14.057064,6.469911 L17.980641,6.469911 L17.980641,8.1442305 L17.980641,8.6236605 L14.057064,8.6236605 L14.057064,10.9030635 L11.366082,10.905741 L11.365578,10.905741 C8.6601375,10.905741 6.4093365,8.919099 5.991426,6.326019 Z" id="path-1"></path>
    </defs>
    <g id="Desk" stroke="none" stroke-width="1" fill="none" fill-rule="evenodd">
        <g id="Blog_filtres" transform="translate(-121.000000, -3309.000000)">
            <g id="Footer" transform="translate(0.000000, 2794.000000)">
                <g id="Logo_line" transform="translate(121.000000, 515.000000)">
                    <path d="M277.109743,17.6934339 C274.734239,17.6934339 272.801619,15.7409782 272.801619,13.3411408 C272.801619,10.9413523 274.734239,8.98889658 277.109743,8.98889658 C279.485296,8.98889658 281.417926,10.9413523 281.417926,13.3411408 C281.417926,15.7409782 279.485296,17.6934339 277.109743,17.6934339 Z M281.417926,7.63153045 C280.221609,6.70808687 278.728101,6.15861152 277.109743,6.15861152 C273.189404,6.15861152 270,9.38072874 270,13.3411408 C270,17.3016017 273.189404,20.523719 277.109743,20.523719 C278.728101,20.523719 280.221609,19.9742436 281.417926,19.0508 L281.417926,20.2300651 L284.219519,20.2300651 L284.219519,9.22920334 L281.417926,7.62712564 L281.417926,7.63153045 Z M330.974921,17.6934339 C328.599368,17.6934339 326.666639,15.7409782 326.666639,13.3411408 C326.666639,10.9413523 328.599368,8.98889658 330.974921,8.98889658 C333.350475,8.98889658 335.283203,10.9413523 335.283203,13.3411408 C335.283203,15.7409782 333.350475,17.6934339 330.974921,17.6934339 Z M335.283203,7.63153045 C334.086541,6.70808687 332.593181,6.15861152 330.974921,6.15861152 C327.054666,6.15861152 323.865046,9.38072874 323.865046,13.3411408 C323.865046,17.3016017 327.054666,20.523719 330.974921,20.523719 C332.593181,20.523719 334.086541,19.9742436 335.283203,19.0508 L335.283203,20.2300651 L338.084796,20.2300651 L338.084796,9.76321293 L335.283203,7.62712564 L335.283203,7.63153045 Z M315.328062,17.8536221 C312.952558,17.8536221 311.019928,15.9012153 311.019928,13.5013779 C311.019928,11.1015405 312.952558,9.14908477 315.328062,9.14908477 C317.703566,9.14908477 319.636245,11.1015405 319.636245,13.5013779 C319.636245,15.9012153 317.703566,17.8536221 315.328062,17.8536221 Z M315.328062,6.31879971 C319.248218,6.31879971 322.437838,9.54091694 322.437838,13.5013779 C322.437838,17.4618389 319.248218,20.6839561 315.328062,20.6839561 C311.407757,20.6839561 308.218285,17.4618389 308.218285,13.5013779 C308.218285,9.54091694 311.407757,6.31879971 315.328062,6.31879971 Z M354.982721,12.8406077 L355,12.8406077 L355,13.3411408 L355,14.7563078 L355,20.2300651 L352.198407,20.2300651 L352.198407,14.7563078 L352.198407,13.3411408 C352.198407,10.9413523 350.265678,8.98889658 347.890125,8.98889658 C345.743636,8.98889658 343.959009,10.5834372 343.635159,12.6615767 L343.635159,20.2300651 L343.581843,20.2300651 L340.833566,20.2300651 L340.78025,20.2300651 L340.78025,9.76321293 L343.581843,7.62712564 L343.581843,7.63167728 C344.778012,6.70813582 346.271866,6.15861152 347.890125,6.15861152 C351.644013,6.15861152 354.726999,9.11286746 354.982721,12.8406077 Z M293.941614,25.0697747 L295.275666,25.0946374 L293.675179,27.8951166 L293.571607,27.8932079 L293.571607,27.8835173 C289.82542,27.6885801 286.83638,24.5505947 286.831838,20.7193903 L286.820681,19.7162197 L286.809722,16.0922861 L286.809722,1.87788183 L289.611314,0 L289.611314,16.0879303 L289.622274,19.7013902 L289.63348,20.7106297 C289.63348,23.110516 291.566111,25.0628739 293.941614,25.0628739 L293.941614,25.0697747 Z M299.311244,17.6934339 C296.93574,17.6934339 295.00311,15.7409782 295.00311,13.3411408 C295.00311,10.9413523 296.93574,8.98889658 299.311244,8.98889658 C301.686748,8.98889658 303.619427,10.9413523 303.619427,13.3411408 C303.619427,15.7409782 301.686748,17.6934339 299.311244,17.6934339 Z M303.641544,7.6487092 C302.441573,6.71488985 300.939623,6.15861152 299.311244,6.15861152 C295.390939,6.15861152 292.201517,9.38072874 292.201517,13.3411408 C292.201517,17.3016017 295.390939,20.523719 299.311244,20.523719 C300.935723,20.523719 302.434415,19.9700346 303.633003,19.0402774 L303.630683,19.8083781 L303.619526,20.8014177 L303.619427,20.8174218 C303.619427,23.2172592 301.686748,25.1697149 299.311244,25.1697149 L298.489723,25.1544449 L296.889236,27.9549241 L299.311244,28 C303.228735,28 306.41633,24.7826302 306.42102,20.8261335 L306.432128,19.834758 L306.443186,16.1947713 L306.443186,9.45737241 L303.641544,7.64171045 L303.641544,7.6487092 Z" id="Shape-Copy-2" fill="#FFFFFF"></path>
                    <g id="Group-3-Copy-2" transform="translate(0.000000, 5.000000)">
                        <g id="AI-1-Copy" transform="translate(124.110000, 2.415000)" fill="#98bcd7">
                            <path d="M5.425434,8.8527915 C3.6127035,8.8527915 2.137905,7.3543365 2.137905,5.5125 C2.137905,3.6706635 3.6127035,2.17221165 5.425434,2.17221165 C7.2381645,2.17221165 8.712963,3.6706635 8.712963,5.5125 C8.712963,7.3543365 7.2381645,8.8527915 5.425434,8.8527915 Z M8.712963,1.1304531 L8.712963,1.12709205 L10.850868,2.35664415 L10.850868,10.7996175 L8.712963,10.7996175 L8.712963,9.8945595 C7.800093,10.603278 6.6603915,11.025 5.425434,11.025 C2.4338223,11.025 0,8.5520925 0,5.5125 C0,2.4729201 2.4338223,0 5.425434,0 C6.6603915,0 7.800093,0.42173775 8.712963,1.1304531 Z M12.6614565,2.38033845 L14.805,1.179801 L14.760018,10.7930655 L12.622176,10.7827335 L12.6614565,2.38033845 Z" id="Shape"></path>
                        </g>
                        <g id="data-1-copy" transform="translate(177.030000, 3.045000)" fill="#98bcd7">
                            <path d="M11.4448005,1.2207069 L11.4063075,11.0145105 L13.5009315,11.025 L13.545,0 L11.4448005,1.2207069 Z M7.6427505,5.0613885 L7.604226,11.0145105 L9.698787,11.025 L9.742887,3.842055 L7.6427505,5.0613885 Z M3.8406375,4.9779135 L5.940774,3.758517 L5.896674,11.025 L3.802113,11.0145105 L3.8406375,4.9779135 Z M0.03853332,8.648766 L2.13868305,7.4335275 L2.0946177,10.941462 L0,10.9310355 L0.03853332,8.648766 Z" id="Shape"></path>
                        </g>
                        <g id="Fill-1-1-Copy" transform="translate(0.000000, 3.045000)" fill="#98bcd7">
                            <path d="M12.160827,8.6359455 L11.031426,8.6359455 L11.0314575,9.516402 C9.6946605,8.9317935 7.831656,8.6359455 5.479173,8.6359455 C4.609647,8.6359455 3.7815435,8.2959975 3.14749575,7.6785975 C2.51011845,7.058016 2.15908245,6.2407485 2.15908245,5.377491 C2.15908245,3.5807625 3.6484875,2.11900815 5.479173,2.11900815 L12.160827,2.11900815 C13.9915125,2.11900815 15.480927,3.5807625 15.480927,5.377491 C15.480927,7.1742195 13.9915125,8.6359455 12.160827,8.6359455 Z M12.160827,0 L5.479173,0 C2.45797335,0 0,2.41231095 0,5.377491 C0,6.809985 0.5777793,8.1614295 1.626849,9.1829115 C2.66801535,10.196676 4.0361265,10.754982 5.479173,10.754982 C9.379251,10.754982 10.6250445,11.6154045 10.9726785,11.97 L10.9726785,10.659726 L12.8646315,10.659726 C13.1578965,10.659726 13.9364505,10.5040845 14.7101535,10.136385 C16.4508435,9.234603 17.64,7.4398905 17.64,5.377491 C17.64,2.41231095 15.1820235,0 12.160827,0 Z" id="Shape"></path>
                        </g>
                        <g id="Fill-6-1-Copy" transform="translate(32.130000, 3.045000)" fill="#98bcd7">
                            <path d="M0.03952998,2.31999705 L0,10.722411 L2.15095545,10.7327115 L2.19620835,1.1194596 L0.03952998,2.31999705 Z M16.5981375,2.31999705 L16.558605,10.722411 L18.709551,10.7327115 L18.7548165,1.1194596 L16.5981375,2.31999705 Z M9.3533265,2.17221165 C7.536627,2.17221165 6.054615,3.660111 6.04588309,5.496624 C6.0372585,7.338429 7.514073,8.8439715 9.3378915,8.8527915 C9.3431835,8.8527915 9.3487275,8.8527915 9.3540825,8.8527915 C10.2316095,8.8527915 11.0574135,8.5097565 11.681334,7.8856155 C12.309003,7.257726 12.657015,6.4206135 12.6612742,5.5284075 L12.6612742,5.528376 C12.6654255,4.63617 12.32532,3.7957185 11.703573,3.1618125 C11.0817945,2.52792225 10.252809,2.1764736 9.3693285,2.17221165 C9.3640995,2.17221165 9.358587,2.17221165 9.3533265,2.17221165 Z M9.354303,11.025 C9.34542,11.025 9.336537,11.025 9.327654,11.025 C6.3177975,11.0104785 3.8807055,8.525853 3.89488143,5.4863235 C3.9092445,2.45562345 6.3553455,0 9.353169,0 C9.361989,0 9.3707145,0 9.379566,0 C10.837575,0.007049448 12.2056515,0.58703085 13.2317325,1.63313325 C14.257845,2.6792388 14.819112,4.066272 14.8122763,5.5386765 C14.805252,7.0111125 14.230944,8.3927025 13.1950665,9.4289265 C12.165489,10.4587875 10.8024525,11.025 9.354303,11.025 Z M21.468321,2.31999705 L23.625,1.1194596 L23.5797345,10.7327115 L21.4287885,10.722411 L21.468321,2.31999705 Z" id="Shape"></path>
                        </g>
                        <g id="Light-1-Copy" transform="translate(99.540000, 1.155000)" fill="#98bcd7">
                            <path d="M7.115031,10.9746315 L6.529824,12.662118 L4.187106,12.662118 L3.705534,11.027457 L7.115031,10.9746315 Z M3.3873525,2.89613835 C4.0757535,2.3362794 4.944114,2.0743632 5.832036,2.15862255 C6.7201785,2.24292285 7.521759,2.6633313 8.0893575,3.342465 C8.656893,4.021605 8.9224065,4.87809 8.8369785,5.754294 C8.805447,6.0772005 8.7268545,6.3918855 8.6031855,6.6896235 L8.590995,6.71895 L7.8623685,8.819811 L3.07711845,8.894088 L2.4431148,6.7415985 L2.4209451,6.688395 C2.2132404,6.190065 2.1346731,5.6634165 2.18733795,5.123097 C2.272788,4.2469245 2.69893575,3.4560855 3.3873525,2.89613835 Z M8.0824275,14.805 L2.5563132,14.805 L0.3888549,7.4469465 C0.067255965,6.649335 -0.058522275,5.776218 0.025207056,4.917843 C0.166231485,3.4719615 0.86951025,2.1667905 2.00557665,1.24276005 C3.14159895,0.31873275 4.57443,-0.11360412 6.0400935,0.0255620925 C7.505694,0.164687985 8.8286625,0.8585388 9.7652835,1.97926785 C10.7019675,3.10003785 11.1401325,4.513572 10.999107,5.9594535 C10.948392,6.479928 10.8228645,6.9883065 10.625895,7.470981 L8.0824275,14.805 Z" id="Shape"></path>
                        </g>
                        <g id="Page-1-1-Copy" transform="translate(205.380000, 1.155000)" fill="#98bcd7">
                            <path d="M4.92354419,5.64834624 C3.35973381,5.64834624 2.08748457,6.8914247 2.08748457,8.41939122 C2.08748457,9.94735775 3.35973381,11.1904362 4.92354419,11.1904362 L13.9764558,11.1904362 C15.5402662,11.1904362 16.8125182,9.94735775 16.8125182,8.41939122 C16.8125182,6.81874889 15.4163776,5.52909458 13.7502342,5.65710993 L12.7601588,5.73295268 L12.6334223,4.77053061 C12.428477,3.21362481 11.0598672,2.03956653 9.45001396,2.03956653 C7.84013278,2.03956653 6.47157882,3.21362481 6.26660565,4.77053061 L6.13986908,5.73295268 L5.14979369,5.65710993 C5.0741259,5.65126747 4.99798343,5.64834624 4.92354419,5.64834624 Z M13.9764558,13.23 L4.92354419,13.23 C2.20872894,13.23 0,11.0719763 0,8.41939122 C0,5.94246212 1.92568113,3.89678285 4.39116123,3.63668428 C5.06812273,1.51222192 7.10383768,0 9.45001396,0 C11.7961902,0 13.8319331,1.51225741 14.5088946,3.63668428 C16.9743524,3.89678285 18.9,5.94246212 18.9,8.41939122 C18.9,11.0719763 16.6912822,13.23 13.9764558,13.23 Z" id="Shape"></path>
                        </g>
                        <g id="Page-1-2-Copy" transform="translate(236.880000, 0.000000)" fill="#98bcd7">
                            <path d="M6.61501411,11.6206922 C9.01685828,11.6206922 11.3064754,12.3647418 13.23,13.7457431 L13.23,16.275 C11.4389123,14.5348291 9.09908093,13.5793155 6.61501411,13.5793155 C4.13091907,13.5793155 1.79112999,14.5348291 0,16.275 L0,13.7457431 C1.92356971,12.3647418 4.21314172,11.6206922 6.61501411,11.6206922 Z M3.40576214,0.525 L3.40576214,5.29224391 C3.40576214,6.95295399 4.73236097,8.30407477 6.3629832,8.30407477 C7.83655537,8.30407477 9.06151198,7.20068295 9.28390549,5.76253782 L9.28390549,0.525 L11.2434466,0.525 L11.2434466,7.76823938 L11.2404264,7.77051133 L9.32034539,9.24644563 L9.32034539,9.24328215 C8.49913502,9.88239067 7.47390634,10.262698 6.3629832,10.262698 C3.78630652,10.262698 1.66992709,8.21834456 1.49470788,5.63861582 L1.48266098,5.63861582 L1.48266098,0.525 L3.40576214,0.525 Z" id="Shape"></path>
                        </g>
                        <g id="Page-1-Copy" transform="translate(68.040000, 3.045000)">
                            <mask id="mask-2" fill="white">
                                <use xlink:href="#path-1"></use>
                            </mask>
                            <g id="Shape"></g>
                            <path d="M11.9119455,2.15033805 L11.3666175,2.1508641 C9.546705,2.1508641 8.066961,3.6327375 8.066961,5.454225 C8.066961,7.2754605 9.5462325,8.7572205 11.3647905,8.757567 L11.9119455,8.7570315 L11.9119455,2.15033805 Z M5.991426,6.326019 L0,6.321609 L0,6.1801425 L2.9769957,4.1756085 L6.072507,4.177908 C6.647697,1.7855712 8.8026435,0.00267489495 11.365578,0.00267489495 L14.057064,0 L14.057064,2.18708595 L17.980641,2.18708595 L17.980641,3.8613645 L17.980641,4.3407945 L14.057064,4.3407945 L14.057064,6.469911 L17.980641,6.469911 L17.980641,8.1442305 L17.980641,8.6236605 L14.057064,8.6236605 L14.057064,10.9030635 L11.366082,10.905741 L11.365578,10.905741 C8.6601375,10.905741 6.4093365,8.919099 5.991426,6.326019 Z" id="Shape" fill="#98bcd7" fill-rule="nonzero" mask="url(#mask-2)"></path>
                        </g>
                        <g id="Recherche-1-Copy" transform="translate(153.090000, 2.415000)" fill="#98bcd7">
                            <path d="M6.03855,2.17595385 C4.267242,2.17595385 2.82614535,3.676995 2.82614535,5.5219815 C2.82614535,7.3669995 4.267242,8.8680375 6.03855,8.8680375 C7.809858,8.8680375 9.2509515,7.3669995 9.2509515,5.5219815 C9.2509515,3.676995 7.809858,2.17595385 6.03855,2.17595385 Z M3.8936205,10.5716835 L1.63954665,13.545 L0,12.1965165 L2.18655675,9.3122505 C1.28846655,8.322552 0.7371,6.988086 0.7371,5.5219815 C0.7371,2.47713795 3.11534055,0 6.03855,0 C8.96175,0 11.34,2.47713795 11.34,5.5219815 C11.34,8.566866 8.96175,11.0439945 6.03855,11.0439945 C5.2755885,11.0439945 4.549734,10.875249 3.8936205,10.5716835 Z" id="Shape"></path>
                        </g>
                    </g>
                </g>
            </g>
        </g>
    </g>
</svg>
